<svg width="32" height="32" viewBox="0 0 32 32" fill="none" xmlns="http://www.w3.org/2000/svg">
  <rect width="32" height="32" rx="7" fill="#00DDB3"/>
  <path d="M 20.875 8.656 c -4.375 0 -6 3.125 -7.312 5.625 l -.875 1.625 c -1.375 2.688 -2.375 4.25 -5.063 4.25 a 1.25 1.25 0 0 0 -.875 .375 a 1.25 1.25 0 0 0 0 1.75 a 1.25 1.25 0 0 0 .875 .375 c 4.375 0 6 -3.125 7.312 -5.625 l .875 -1.625 c 1.375 -2.688 2.375 -4.25 5.063 -4.25 a 1.25 1.25 0 0 0 .875 -.375 a 1.25 1.25 0 0 0 .375 -.875 a 1.25 1.25 0 0 0 -1.25 -1.25 z" 
        fill="white"/>
  <g transform="translate(17.844, 16.5)">
    <circle cx="5" cy="5" r="4" 
            stroke="white" 
            stroke-width="1.5" 
            fill="none"/>
    <line x1="7.5" y1="7.5" x2="10" y2="10" 
          stroke="white" 
          stroke-width="1.5" 
          stroke-linecap="round"/>
  </g>
</svg>