<svg width="512" height="512" viewBox="0 0 512 512" fill="none" xmlns="http://www.w3.org/2000/svg">
  <!-- 圆角矩形背景 -->
  <rect width="512" height="512" rx="115" fill="#00DDB3"/>
  
  <!-- Lottie 原始 S 曲线 - 居中 -->
  <path d="M 334 141 c -70 0 -96 50 -117 90 l -14 26 c -22 43 -38 68 -81 68 a 20 20 0 0 0 -14 6 a 20 20 0 0 0 0 28 a 20 20 0 0 0 14 6 c 70 0 96 -50 117 -90 l 14 -26 c 22 -43 38 -68 81 -68 a 20 20 0 0 0 14 -6 a 20 20 0 0 0 6 -14 a 20 20 0 0 0 -20 -20 z" 
        fill="white"/>
  
  <!-- 右下角小放大镜 -->
  <g transform="translate(345, 330)">
    <circle cx="50" cy="50" r="45" 
            stroke="white" 
            stroke-width="18" 
            fill="none"/>
    <line x1="82" y1="82" x2="110" y2="110" 
          stroke="white" 
          stroke-width="18" 
          stroke-linecap="round"/>
  </g>
</svg>
